# Blender 4.4.0
# www.blender.org
mtllib letter_y.mtl
o Cube.001
v 0.090086 2.120399 0.149257
v -0.031680 1.611776 0.040466
v -0.236944 2.120399 -0.142925
v 0.124347 2.120399 0.110909
v 0.002582 1.611776 0.002119
v -0.202683 2.120399 -0.181273
v -0.039167 1.857755 -0.035182
v -0.073429 1.857755 0.003166
v 0.090086 2.014709 0.149257
v -0.236944 2.014709 -0.142925
v -0.202683 2.014709 -0.181273
v 0.124347 2.014709 0.110909
v -0.039167 2.014709 -0.035182
v -0.073429 2.014709 0.003166
v -0.083189 1.611776 -0.074512
v -0.117450 1.611776 -0.036164
v -0.155186 2.120399 -0.069880
v -0.117450 1.858140 -0.036164
v -0.120925 2.120399 -0.108228
v -0.083189 1.858140 -0.074512
v -0.120925 2.014709 -0.108228
v -0.155186 2.014709 -0.069880
v 0.042590 2.120399 0.037864
v 0.002582 1.858140 0.002119
v 0.008328 2.120399 0.076211
v -0.031680 1.858140 0.040466
v 0.008328 2.014709 0.076211
v 0.042590 2.014709 0.037864
vn -0.6663 -0.0000 0.7457
vn -0.7457 -0.0000 -0.6663
vn 0.6663 -0.0000 -0.7457
vn 0.7457 -0.0000 0.6663
vn -0.0000 1.0000 -0.0000
vn -0.0000 -1.0000 -0.0000
vn -0.5212 -0.7153 -0.4656
vn 0.5176 0.7199 0.4624
vn -0.5176 0.7199 -0.4624
vn 0.5161 -0.7218 0.4611
vt 0.562500 0.187500
vt 0.625000 0.187500
vt 0.625000 0.250000
vt 0.562500 0.250000
vt 0.625000 0.500000
vt 0.562500 0.500000
vt 0.562500 0.687500
vt 0.625000 0.687500
vt 0.625000 0.750000
vt 0.562500 0.750000
vt 0.625000 1.000000
vt 0.562500 1.000000
vt 0.875000 0.687500
vt 0.875000 0.750000
vt 0.500000 0.062500
vt 0.562500 0.062500
vt 0.562500 0.125000
vt 0.500000 0.125000
vt 0.500000 0.562500
vt 0.562500 0.562500
vt 0.562500 0.625000
vt 0.500000 0.625000
vt 0.000000 0.000000
vt 0.500000 0.187500
vt 0.625000 0.562500
vt 0.875000 0.500000
vt 0.875000 0.562500
vt 0.500000 0.687500
vt 0.562500 0.000000
vt 0.625000 0.000000
vt 0.625000 0.062500
s 1
f 22/1/1 17/2/1 3/3/1 10/4/1
f 10/4/2 3/3/2 6/5/2 11/6/2
f 28/7/3 23/8/3 4/9/3 12/10/3
f 12/10/4 4/9/4 1/11/4 9/12/4
f 23/8/5 25/13/5 1/14/5 4/9/5
f 26/15/1 27/16/1 14/17/1 8/18/1
f 20/19/3 21/20/3 13/21/3 7/22/3
f 5/23/6 2/23/6 16/23/6 15/19/6
f 8/18/1 14/17/1 22/1/1 18/24/1
f 11/6/3 6/5/3 19/25/3 21/20/3
f 6/5/5 3/26/5 17/27/5 19/25/5
f 7/22/3 13/21/3 28/7/3 24/28/3
f 9/29/1 1/30/1 25/31/1 27/16/1
f 18/23/2 20/19/2 15/19/2 16/23/2
f 10/4/1 18/24/1 22/1/1
f 21/20/3 20/19/3 11/6/3
f 11/6/7 20/19/7 18/23/7 10/4/7
f 14/23/8 13/23/8 19/25/8 17/27/8
f 21/20/3 19/25/3 13/23/3
f 14/23/1 17/27/1 22/1/1
f 27/16/1 25/31/1 14/17/1
f 28/7/3 13/21/3 23/8/3
f 23/8/9 13/21/9 14/23/9 25/31/9
f 12/10/10 9/12/10 26/23/10 24/23/10
f 12/10/3 24/23/3 28/7/3
f 27/16/1 26/15/1 9/12/1
f 24/23/4 26/23/4 2/23/4 5/23/4
f 20/23/3 24/23/3 5/23/3 15/23/3
f 26/23/1 18/23/1 16/23/1 2/23/1
l 7 8
