# Blender 4.4.0
# www.blender.org
mtllib right_hand.mtl
o Cube.001
v -0.145515 0.591497 0.509496
v -0.045544 -0.300035 0.556573
v 0.122911 0.591497 0.509496
v 0.204704 -0.202935 0.556573
v -0.145516 0.593840 -0.523050
v -0.036823 -0.750059 -0.540810
v 0.122911 0.593559 -0.523050
v 0.213425 -0.652959 -0.540810
v 0.122911 0.593840 0.342994
v 0.122911 -0.017609 0.342994
v -0.145515 0.593840 0.342994
v -0.145515 -0.017609 0.321307
v 0.122911 -0.017609 0.291717
v -0.145515 0.593840 0.291717
v 0.122911 0.593840 0.291717
v -0.145515 -0.017609 0.291717
v 0.122911 0.593840 0.369148
v -0.013791 -0.381869 0.347462
v 0.236457 -0.284769 0.369148
v -0.145515 0.593840 0.369148
v 0.267293 -0.791787 0.282753
v -0.145515 0.593840 0.263593
v 0.122911 0.593840 0.263593
v 0.017044 -0.888887 0.282753
v 0.122911 -0.281548 0.065915
v -0.145516 0.593840 0.056476
v 0.122911 0.593840 0.056476
v -0.145516 -0.281548 0.056476
v 0.122911 -0.307289 -0.149281
v -0.145516 0.593840 -0.149073
v 0.122911 0.593559 -0.149073
v -0.145516 -0.307289 -0.149073
v 0.122911 -0.308414 -0.365186
v -0.145516 0.593840 -0.347714
v 0.122911 0.593559 -0.347714
v -0.145516 -0.308414 -0.355299
v 0.122911 0.593840 0.032973
v 0.052305 -0.979762 0.041309
v 0.302554 -0.882661 0.041309
v -0.145516 0.593840 0.032973
v 0.302554 -0.882661 -0.136170
v -0.145516 0.593840 -0.136550
v 0.122911 0.593559 -0.136550
v 0.052305 -0.979761 -0.136170
v 0.122911 0.593559 -0.161234
v 0.044942 -0.960786 -0.174705
v 0.295191 -0.863686 -0.174705
v -0.145516 0.593840 -0.161234
v 0.295191 -0.863686 -0.323225
v -0.145516 0.593840 -0.302972
v 0.122911 0.593559 -0.302972
v 0.044942 -0.960787 -0.323225
v 0.248893 -0.744366 -0.381784
v -0.145516 0.593840 -0.369890
v 0.122911 0.593559 -0.369890
v -0.001356 -0.841467 -0.381784
v 0.122911 0.593840 0.072642
v 0.017044 -0.888887 0.082839
v 0.267293 -0.791787 0.082839
v -0.145516 0.593840 0.072642
v -0.145515 0.183620 0.533035
v 0.122911 0.183620 0.533035
v 0.122911 -0.056705 -0.531930
v -0.145516 -0.056565 -0.531930
v -0.076294 -0.648333 0.070995
v 0.184721 -0.578981 -0.142780
v -0.132126 -0.504442 -0.537213
v -0.086016 -0.623279 -0.341816
v -0.066996 -0.672297 0.048755
v 0.124224 0.004482 0.543734
v 0.183320 -0.575371 -0.162139
v 0.184612 -0.304886 0.364655
v 0.190554 -0.594015 0.076588
v 0.186693 -0.156516 0.356927
v 0.163089 -0.523232 -0.373856
v 0.189577 -0.591496 0.052748
v 0.133631 -0.447312 0.286704
v -0.119316 -0.109908 0.544804
v 0.130932 -0.012807 0.544804
v 0.122911 -0.381837 -0.536370
v -0.145516 -0.381767 -0.536370
v -0.072819 -0.657291 -0.161369
v 0.121918 -0.417124 -0.537356
v 0.185025 -0.275481 0.363124
v -0.115460 -0.547395 0.286670
v -0.132702 -0.075410 0.542668
v 0.170079 -0.541245 0.074920
v 0.171292 -0.544372 -0.374614
v -0.072311 -0.658599 -0.143050
v -0.088005 -0.618153 -0.369009
v 0.169983 -0.540999 -0.346478
v -0.065582 -0.248392 0.334743
v 0.186583 -0.583780 -0.162506
v -0.020820 -0.791302 -0.332561
vn -0.0208 0.0537 0.9983
vn -0.0022 0.0114 -0.9999
vn 0.0010 1.0000 -0.0000
vn 0.3155 -0.8583 0.4048
vn -0.0000 -1.0000 -0.0000
vn -0.0000 1.0000 -0.0000
vn 0.0028 -0.0102 0.9999
vn -0.0000 0.9999 0.0167
vn 0.0943 -0.0418 -0.9947
vn 0.3617 -0.9323 -0.0000
vn 0.9323 0.3617 -0.0000
vn -0.0093 -0.0323 0.9994
vn 0.0149 -0.0379 0.9992
vn 0.1067 -0.0532 -0.9929
vn 0.0237 -0.0379 0.9990
vn -0.9323 -0.3617 -0.0000
vn 0.0051 -0.0191 -0.9998
vn 0.0005 1.0000 -0.0008
vn 0.0080 -0.0389 0.9992
vn -0.0136 -0.0604 -0.9981
vn 0.0157 -0.0600 -0.9981
vn 0.3079 -0.7936 -0.5248
vn 0.0206 -0.0333 -0.9992
vn 0.0319 -0.0307 -0.9990
vn 0.0347 -0.0356 0.9988
vn -0.0000 0.0137 -0.9999
vn -0.0000 0.0576 0.9983
vn 0.9993 0.0375 -0.0037
vn -0.0049 0.0127 -0.9999
vn -0.9988 -0.0479 0.0063
vn -0.0090 0.0461 0.9989
vt 0.562500 0.000000
vt 0.625000 0.000000
vt 0.625000 0.250000
vt 0.562500 0.250000
vt 0.562500 0.500000
vt 0.576373 0.500000
vt 0.574366 0.750000
vt 0.562500 0.750000
vt 0.342013 0.500000
vt 0.375000 0.500000
vt 0.375000 0.750000
vt 0.342013 0.750000
vt 0.813148 0.500000
vt 0.875000 0.500000
vt 0.875000 0.750000
vt 0.813148 0.750000
vt 0.813148 0.551794
vt 0.796333 0.500000
vt 0.807469 0.500000
vt 0.807469 0.750000
vt 0.796333 0.750000
vt 0.186852 0.500000
vt 0.192532 0.500000
vt 0.192532 0.750000
vt 0.186852 0.750000
vt 0.790225 0.500000
vt 0.792917 0.500000
vt 0.792894 0.750000
vt 0.790225 0.750000
vt 0.203667 0.500000
vt 0.203667 0.750000
vt 0.125000 0.500000
vt 0.125000 0.750000
vt 0.810495 0.500000
vt 0.812622 0.541529
vt 0.810386 0.750000
vt 0.748756 0.500000
vt 0.748756 0.750000
vt 0.209775 0.500000
vt 0.209775 0.750000
vt 0.625000 0.311852
vt 0.625000 0.314506
vt 0.556817 0.250000
vt 0.740142 0.500000
vt 0.742514 0.500000
vt 0.745246 0.500000
vt 0.745246 0.750000
vt 0.742647 0.750000
vt 0.740142 0.750000
vt 0.251244 0.500000
vt 0.254754 0.500000
vt 0.254754 0.750000
vt 0.251244 0.750000
vt 0.697966 0.500000
vt 0.699233 0.500000
vt 0.699340 0.750000
vt 0.697966 0.750000
vt 0.296674 0.500000
vt 0.299393 0.500000
vt 0.299393 0.750000
vt 0.296674 0.750000
vt 0.625000 0.460243
vt 0.625000 0.425729
vt 0.625000 0.425767
vt 0.625000 0.427034
vt 0.625000 0.457815
vt 0.657987 0.500000
vt 0.660068 0.500000
vt 0.660310 0.750000
vt 0.657987 0.750000
vt 0.332815 0.500000
vt 0.337197 0.500000
vt 0.337197 0.750000
vt 0.332815 0.750000
vt 0.259858 0.500000
vt 0.259858 0.750000
vt 0.703327 0.500000
vt 0.703326 0.750000
vt 0.625000 0.867647
vt 0.625000 0.826876
vt 0.625000 0.828326
vt 0.625000 0.865142
vt 0.700607 0.500000
vt 0.701955 0.500000
vt 0.701876 0.750000
vt 0.700607 0.750000
vt 0.302034 0.500000
vt 0.302034 0.750000
vt 0.699271 0.500000
vt 0.667185 0.500000
vt 0.667185 0.750000
vt 0.662803 0.500000
vt 0.664757 0.500000
vt 0.665910 0.750000
vt 0.664645 0.750000
vt 0.662803 0.750000
vt 0.625000 0.500000
vt 0.625000 0.750000
vt 0.747179 0.750000
vt 0.747460 0.500000
vt 0.747114 0.500000
vt 0.625000 0.464712
vt 0.625000 0.464932
vt 0.625000 0.467013
vt 0.625000 0.377886
vt 0.625000 0.332083
vt 0.625000 0.334775
vt 0.625000 0.376244
vt 0.625000 0.377540
vt 0.625000 0.917894
vt 0.625000 0.872179
vt 0.625000 0.873756
vt 0.625000 0.915225
vt 0.660288 0.500000
vt 0.551160 0.000000
vt 0.625000 0.785310
vt 0.625000 0.782987
vt 0.500000 0.500000
vt 0.500000 0.750000
vt 0.375000 0.000000
vt 0.500000 0.000000
vt 0.500000 0.250000
vt 0.375000 0.250000
vt 0.625000 0.317532
vt 0.625000 0.328667
vt 0.625000 0.379754
vt 0.625000 0.382486
vt 0.625000 0.423045
vt 0.625000 0.424393
vt 0.625000 0.462197
vt 0.375000 0.467013
vt 0.375000 0.462197
vt 0.375000 0.457815
vt 0.375000 0.427034
vt 0.375000 0.424393
vt 0.375000 0.421673
vt 0.375000 0.384858
vt 0.375000 0.379754
vt 0.375000 0.376244
vt 0.375000 0.334775
vt 0.375000 0.328667
vt 0.375000 0.317532
vt 0.375000 0.311852
vt 0.625000 0.824340
vt 0.625000 0.789645
vt 0.625000 0.790910
vt 0.625000 0.792185
vt 0.625000 0.822966
vt 0.625000 0.384858
vt 0.625000 0.421673
vt 0.625000 0.935386
vt 0.551160 1.000000
vt 0.500000 1.000000
vt 0.375000 1.000000
vt 0.375000 0.938148
vt 0.375000 0.932468
vt 0.375000 0.921333
vt 0.375000 0.915225
vt 0.375000 0.873756
vt 0.375000 0.870246
vt 0.375000 0.865142
vt 0.375000 0.828327
vt 0.375000 0.825607
vt 0.375000 0.822966
vt 0.375000 0.792185
vt 0.375000 0.787803
vt 0.375000 0.782987
vt 0.625000 0.787803
vt 0.625000 0.825607
vt 0.625000 0.870246
vt 0.625000 0.921333
vt 0.625000 0.932469
vt 0.625000 0.938148
vt 0.625000 1.000000
vt 0.562500 1.000000
s 0
f 78/1/1 2/2/1 4/3/1 79/4/1
f 80/5/2 83/6/2 67/7/2 81/8/2
f 55/9/3 7/10/3 5/11/3 54/12/3
f 19/13/4 4/14/4 2/15/4 18/16/4 72/17/4
f 13/18/5 10/19/5 12/20/5 16/21/5
f 17/22/6 9/23/6 11/24/6 20/25/6
f 21/26/7 77/27/7 13/18/7 16/21/7 85/28/7 24/29/7
f 9/23/6 15/30/6 14/31/6 11/24/6
f 3/32/8 17/22/8 20/25/8 1/33/8
f 10/19/9 74/34/9 84/35/9 92/36/9 12/20/9
f 59/37/10 21/26/10 24/29/10 58/38/10
f 15/30/6 23/39/6 22/40/6 14/31/6
f 19/41/11 74/42/11 70/43/11 79/4/11 4/3/11
f 39/44/12 76/45/12 25/46/12 28/47/12 69/48/12 38/49/12
f 57/50/6 27/51/6 26/52/6 60/53/6
f 47/54/13 93/55/13 82/56/13 46/57/13
f 19/13/14 84/35/14 74/34/14
f 43/58/3 31/59/3 30/60/3 42/61/3
f 91/62/11 71/63/11 93/64/11 47/65/11 49/66/11
f 53/67/15 88/68/15 90/69/15 56/70/15
f 51/71/3 35/72/3 34/73/3 50/74/3
f 27/51/6 37/75/6 40/76/6 26/52/6
f 41/77/10 39/44/10 38/49/10 44/78/10
f 69/79/16 89/80/16 44/81/16 38/82/16
f 29/83/17 66/84/17 41/77/17 44/78/17 89/85/17 32/86/17
f 37/75/18 43/58/18 42/61/18 40/76/18
f 31/59/3 45/87/3 48/88/3 30/60/3
f 82/56/19 93/55/19 71/89/19 29/83/19 32/86/19
f 49/90/10 47/54/10 46/57/10 52/91/10
f 33/92/20 91/93/20 94/94/20 68/95/20 36/96/20
f 94/94/21 91/93/21 49/90/21 52/91/21
f 45/87/3 51/71/3 50/74/3 48/88/3
f 8/97/22 53/67/22 56/70/22 6/98/22
f 65/99/23 73/100/23 59/37/23 58/38/23
f 35/72/3 55/9/3 54/12/3 34/73/3
f 23/39/6 57/50/6 60/53/6 22/40/6
f 25/46/24 87/101/24 73/100/24 65/99/24 28/47/24
f 83/6/11 75/102/11 88/103/11 53/104/11 8/97/11
f 87/105/11 77/106/11 21/107/11 59/108/11 73/109/11
f 72/17/14 84/35/14 19/13/14
f 85/110/16 65/111/16 58/112/16 24/113/16
f 90/69/25 88/68/25 75/114/25 33/92/25 36/96/25
f 70/43/1 86/115/1 78/1/1 79/4/1
f 90/116/16 67/7/16 6/98/16 56/117/16
f 7/10/26 63/118/26 64/119/26 5/11/26
f 1/120/27 61/121/27 62/122/27 3/123/27
f 70/43/28 74/42/28 10/124/28 13/125/28 77/106/28 87/105/28 25/126/28 76/127/28 66/128/28 29/129/28 71/63/28 91/62/28 33/130/28 75/102/28 83/6/28 80/5/28 63/118/28 7/10/28 55/131/28 35/132/28 51/133/28 45/134/28 31/135/28 43/136/28 37/137/28 27/138/28 57/139/28 23/140/28 15/141/28 9/142/28 17/143/28 3/123/28 62/122/28
f 67/7/29 83/6/29 8/97/29 6/98/29
f 92/36/14 84/35/14 72/17/14 18/16/14
f 82/144/16 68/145/16 94/146/16 52/147/16 46/148/16
f 66/128/11 76/127/11 39/149/11 41/150/11
f 92/151/30 86/152/30 61/153/30 1/154/30 20/155/30 11/156/30 14/157/30 22/158/30 60/159/30 26/160/30 40/161/30 42/162/30 30/163/30 48/164/30 50/165/30 34/166/30 54/167/30 5/11/30 64/119/30 81/8/30 67/7/30 90/116/30 36/168/30 68/145/30 82/144/30 32/169/30 89/80/30 69/79/30 28/170/30 65/111/30 85/110/30 16/171/30 12/172/30
f 63/118/26 80/5/26 81/8/26 64/119/26
f 61/121/31 86/115/31 70/43/31 62/122/31
f 18/173/16 2/174/16 78/175/16 86/152/16 92/151/16
